<svg width="19" height="19" viewBox="0 0 19 19" fill="none" xmlns="http://www.w3.org/2000/svg">
<path fill-rule="evenodd" clip-rule="evenodd" d="M4.5043 14.7441C4.8208 14.7441 5.07805 15.003 5.07805 15.3215C5.07805 15.6399 4.8208 15.898 4.5043 15.898C4.1878 15.898 3.9313 15.6399 3.9313 15.3215C3.9313 15.003 4.1878 14.7441 4.5043 14.7441Z" stroke="white" stroke-width="2" stroke-linecap="round" stroke-linejoin="round"/>
<path fill-rule="evenodd" clip-rule="evenodd" d="M12.9436 14.7441C13.2601 14.7441 13.5173 15.003 13.5173 15.3215C13.5173 15.6399 13.2601 15.898 12.9436 15.898C12.6271 15.898 12.3698 15.6399 12.3698 15.3215C12.3698 15.003 12.6271 14.7441 12.9436 14.7441Z" stroke="white" stroke-width="2" stroke-linecap="round" stroke-linejoin="round"/>
<path d="M1 2.26019L2.56 2.53141L3.28225 11.1751C3.34075 11.8795 3.9265 12.4204 4.63 12.4204H12.814C13.486 12.4204 14.056 11.9247 14.1528 11.2557L14.8645 6.31495C14.9523 5.70546 14.482 5.16 13.8693 5.16H2.8105" stroke="white" stroke-width="2" stroke-linecap="round" stroke-linejoin="round"/>
<path d="M9.53162 7.94548H11.6114" stroke="white" stroke-width="2" stroke-linecap="round" stroke-linejoin="round"/>
</svg>
