<svg width="66" height="93" viewBox="0 0 66 93" fill="none" xmlns="http://www.w3.org/2000/svg">
<path fill-rule="evenodd" clip-rule="evenodd" d="M62 21.8097V85.9626L33.4778 70.451C33.1799 70.289 32.8201 70.289 32.5222 70.451L4 85.9626L4 21.8097C4 14.5223 10.4919 8.61475 18.5 8.61475L47.5 8.61475C55.5081 8.61475 62 14.5223 62 21.8097Z" stroke="#393939" stroke-width="8" stroke-linecap="round"/>
<path d="M21.6409 40.8244C22.5929 40.0684 23.0269 39.7184 22.9429 39.7744C25.6869 37.5064 27.8429 35.6444 29.4109 34.1884C31.0069 32.7324 32.3509 31.2064 33.4429 29.6104C34.5349 28.0144 35.0809 26.4604 35.0809 24.9484C35.0809 23.8004 34.8149 22.9044 34.2829 22.2604C33.7509 21.6164 32.9529 21.2944 31.8889 21.2944C30.8249 21.2944 29.9849 21.7004 29.3689 22.5124C28.7809 23.2964 28.4869 24.4164 28.4869 25.8724H21.5569C21.6129 23.4924 22.1169 21.5044 23.0689 19.9084C24.0489 18.3124 25.3229 17.1364 26.8909 16.3804C28.4869 15.6244 30.2509 15.2464 32.1829 15.2464C35.5149 15.2464 38.0209 16.1004 39.7009 17.8084C41.4089 19.5164 42.2629 21.7424 42.2629 24.4864C42.2629 27.4824 41.2409 30.2684 39.1969 32.8444C37.1529 35.3924 34.5489 37.8844 31.3849 40.3204H42.7249V46.1584H21.6409V40.8244Z" fill="#3D3D3F"/>
<path d="M16.2837 54.8509C16.0677 54.4349 15.7677 54.1229 15.3837 53.9149C14.9997 53.6989 14.5557 53.5909 14.0517 53.5909C13.4997 53.5909 13.0077 53.7149 12.5757 53.9629C12.1437 54.2109 11.8037 54.5629 11.5557 55.0189C11.3157 55.4749 11.1957 56.0029 11.1957 56.6029C11.1957 57.2029 11.3157 57.7349 11.5557 58.1989C11.8037 58.6549 12.1437 59.0069 12.5757 59.2549C13.0077 59.5029 13.4997 59.6269 14.0517 59.6269C14.7957 59.6269 15.3997 59.4189 15.8637 59.0029C16.3277 58.5869 16.6117 58.0229 16.7157 57.3109H13.5837V56.2189H18.1797V57.2869C18.0917 57.9349 17.8597 58.5309 17.4837 59.0749C17.1157 59.6189 16.6317 60.0549 16.0317 60.3829C15.4397 60.7029 14.7797 60.8629 14.0517 60.8629C13.2677 60.8629 12.5517 60.6829 11.9037 60.3229C11.2557 59.9549 10.7397 59.4469 10.3557 58.7989C9.97966 58.1509 9.79166 57.4189 9.79166 56.6029C9.79166 55.7869 9.97966 55.0549 10.3557 54.4069C10.7397 53.7589 11.2557 53.2549 11.9037 52.8949C12.5597 52.5269 13.2757 52.3429 14.0517 52.3429C14.9397 52.3429 15.7277 52.5629 16.4157 53.0029C17.1117 53.4349 17.6157 54.0509 17.9277 54.8509H16.2837ZM23.3329 60.8749C22.5569 60.8749 21.8409 60.6949 21.1849 60.3349C20.5369 59.9669 20.0209 59.4589 19.6369 58.8109C19.2609 58.1549 19.0729 57.4189 19.0729 56.6029C19.0729 55.7869 19.2609 55.0549 19.6369 54.4069C20.0209 53.7589 20.5369 53.2549 21.1849 52.8949C21.8409 52.5269 22.5569 52.3429 23.3329 52.3429C24.1169 52.3429 24.8329 52.5269 25.4809 52.8949C26.1369 53.2549 26.6529 53.7589 27.0289 54.4069C27.4049 55.0549 27.5929 55.7869 27.5929 56.6029C27.5929 57.4189 27.4049 58.1549 27.0289 58.8109C26.6529 59.4589 26.1369 59.9669 25.4809 60.3349C24.8329 60.6949 24.1169 60.8749 23.3329 60.8749ZM23.3329 59.6869C23.8849 59.6869 24.3769 59.5629 24.8089 59.3149C25.2409 59.0589 25.5769 58.6989 25.8169 58.2349C26.0649 57.7629 26.1889 57.2189 26.1889 56.6029C26.1889 55.9869 26.0649 55.4469 25.8169 54.9829C25.5769 54.5189 25.2409 54.1629 24.8089 53.9149C24.3769 53.6669 23.8849 53.5429 23.3329 53.5429C22.7809 53.5429 22.2889 53.6669 21.8569 53.9149C21.4249 54.1629 21.0849 54.5189 20.8369 54.9829C20.5969 55.4469 20.4769 55.9869 20.4769 56.6029C20.4769 57.2189 20.5969 57.7629 20.8369 58.2349C21.0849 58.6989 21.4249 59.0589 21.8569 59.3149C22.2889 59.5629 22.7809 59.6869 23.3329 59.6869ZM31.6631 52.4509C32.5511 52.4509 33.3271 52.6229 33.9911 52.9669C34.6631 53.3029 35.1791 53.7909 35.5391 54.4309C35.9071 55.0629 36.0911 55.8029 36.0911 56.6509C36.0911 57.4989 35.9071 58.2349 35.5391 58.8589C35.1791 59.4829 34.6631 59.9629 33.9911 60.2989C33.3271 60.6269 32.5511 60.7909 31.6631 60.7909H28.9391V52.4509H31.6631ZM31.6631 59.6749C32.6391 59.6749 33.3871 59.4109 33.9071 58.8829C34.4271 58.3549 34.6871 57.6109 34.6871 56.6509C34.6871 55.6829 34.4271 54.9269 33.9071 54.3829C33.3871 53.8389 32.6391 53.5669 31.6631 53.5669H30.3071V59.6749H31.6631ZM38.8149 52.4509V60.7909H37.4469V52.4509H38.8149ZM47.4629 60.7909H46.0949L41.9789 54.5629V60.7909H40.6109V52.4389H41.9789L46.0949 58.6549V52.4389H47.4629V60.7909ZM50.6274 53.5549V56.0029H53.5074V57.1189H50.6274V59.6749H53.8674V60.7909H49.2594V52.4389H53.8674V53.5549H50.6274Z" fill="black"/>
</svg>
