<svg id="Layer_1" data-name="Layer 1" xmlns="http://www.w3.org/2000/svg" viewBox="0 0 1153 282"><defs><style>.cls-1{fill:#0f0f0f;}.cls-2{fill:#eb2328;}</style></defs><title>logo</title><path class="cls-1" d="M90.27,129.31c0-18,0-21.31-.12-25.07-.24-4-1.21-5.3-4.6-6.41a17.12,17.12,0,0,0-4.24-.42c-1.09,0-1.82-.42-1.82-1.25S80.34,95,81.91,95c5.58,0,12.36.28,14.54.28,3.63,0,13.32-.28,16.59-.28,6.79,0,14.54.7,20.23,5a21.59,21.59,0,0,1,7.51,16.3c0,8.77-4.36,16.57-14.78,26.18,9.45,13.38,17,24.1,23.38,31.48,5.94,6.83,9.69,7.39,11.39,7.81a8.94,8.94,0,0,0,2.54.27,1.31,1.31,0,0,1,1.33,1.26c0,1-.72,1.25-2.06,1.25H152.41c-5.94,0-8.84-.69-11.63-2.37-4.6-2.64-8.6-8.22-14.53-17.41-4.24-6.41-8.73-14.35-10.06-16.16a2.29,2.29,0,0,0-1.94-.83l-9.56-.28c-.49,0-.85.28-.85,1v1.67c0,11,.12,20.2.6,25.22.37,3.48.85,5.71,4.12,6.27a36.47,36.47,0,0,0,5.21.41,1.31,1.31,0,0,1,1.33,1.26c0,.83-.85,1.25-2.18,1.25-6.18,0-15-.42-16.59-.42-2.06,0-8.84.42-13.08.42-1.34,0-2.06-.42-2.06-1.25,0-.56.36-1.26,1.69-1.26a14.13,14.13,0,0,0,3.76-.41c2.18-.56,2.78-2.79,3.15-6.27.48-5,.48-14.35.48-25.22Zm13.57,9.19c0,1.26.24,1.68,1,2.09a25.5,25.5,0,0,0,8.11,1.12c4.24,0,5.7-.42,7.51-2,3.27-2.65,6.91-7.8,6.91-17.55,0-16.72-9.94-21-16.23-21a33.46,33.46,0,0,0-6.3.42c-.73.28-1,.7-1,1.67Z"/><path class="cls-1" d="M165.37,139.76c0-20.2,12.35-46.39,44.69-46.39,26.89,0,43.61,17.13,43.61,44.3s-17.2,48.47-44.7,48.47C178,186.14,165.37,160.79,165.37,139.76ZM237.8,142c0-26.19-13.69-42.35-30.89-42.35-11.87,0-25.8,7.24-25.8,36.5,0,24.37,12.11,43.6,32.22,43.6C220.84,179.74,237.8,175.7,237.8,142Z"/><path class="cls-1" d="M292.91,153.83c0-6.41-1-8.92-2.43-12.4-.72-1.81-15.26-27.86-19-34.13-2.67-4.32-4.85-7.1-6.91-8.36a9.64,9.64,0,0,0-4.48-1.53c-.85,0-1.57-.42-1.57-1.25s.72-1.12,2.06-1.12c1.81,0,9.81.28,13.32.28,2.3,0,7.27-.28,12.11-.28,1,0,1.58.28,1.58,1.12s-.73,1-2.43,1.53a1.85,1.85,0,0,0-1.45,1.81,10.2,10.2,0,0,0,1.33,4c1.94,3.62,15.87,31.34,17.69,34.69,1.33-2.79,14.29-28.14,15.86-31.76a17.51,17.51,0,0,0,1.58-6.27,2.56,2.56,0,0,0-2.3-2.65c-1-.28-1.94-.42-1.94-1.39s.61-1.12,1.82-1.12c3.51,0,7.26.28,10.41.28,2.3,0,9.33-.28,11.39-.28,1.21,0,1.94.28,1.94,1s-.85,1.39-2.06,1.39a11.73,11.73,0,0,0-4.6,1.39c-2.31,1.26-3.28,2.37-5.58,5.58-3.51,4.73-18.77,32.87-20.71,37.88-1.57,4.32-1.33,7.94-1.33,11.84v9.48c0,1.95,0,6.82.24,11.84.24,3.48,1.21,5.71,4.36,6.27a36.78,36.78,0,0,0,5.33.41c1.21,0,1.82.7,1.82,1.26,0,.83-.85,1.25-2.3,1.25-6.67,0-13.81-.42-16.72-.42-2.66,0-9.81.42-13.81.42-1.45,0-2.3-.28-2.3-1.25,0-.56.49-1.26,1.7-1.26a14.74,14.74,0,0,0,3.75-.41c2.18-.56,3-2.79,3.27-6.27.37-5,.37-9.89.37-11.84Z"/><path class="cls-1" d="M359.28,154.8c-.61,0-.73.14-1,.84l-5.69,15.88a24.17,24.17,0,0,0-1.58,7.24c0,2.09,1,3.34,4.24,3.34h1.58c1.33,0,1.57.56,1.57,1.26,0,1-.6,1.25-1.69,1.25-3.52,0-8.48-.42-11.87-.42-1.09,0-6.79.42-12.36.42-1.33,0-1.94-.28-1.94-1.25a1.14,1.14,0,0,1,1.22-1.26c1,0,2.18-.14,3.14-.14,4.85-.83,6.67-4.45,8.85-10.44L371.64,97c1.21-3.34,2.05-4.73,3.14-4.73,1.58,0,2.06,1.11,3.15,3.76,2.55,6.54,20.35,55,27.14,73,4.11,10.73,7.14,12.26,9.08,12.68a23.17,23.17,0,0,0,4,.41c1,0,1.45.42,1.45,1.26s-.61,1.25-4.6,1.25c-3.76,0-11.51,0-20.47-.28-1.94-.14-3.15-.14-3.15-1s.24-1.12,1.33-1.26a1.93,1.93,0,0,0,1-2.64l-8.24-23.82a1,1,0,0,0-1.09-.84Zm22.77-6.55c.49,0,.61-.27.49-.69l-10.06-30.09c-.12-.42-.24-1.11-.48-1.11s-.49.69-.61,1.11L361.1,147.42c-.25.56,0,.83.36.83Z"/><path class="cls-1" d="M449.76,150.2c0,15.19,0,22.71,2.3,24.94,1.82,1.81,5.93,2.51,14.17,2.51,5.69,0,9.81-.14,12.48-3.35,1.33-1.53,2.42-4.87,2.66-7.1.12-1.12.36-1.81,1.21-1.81s1,1.25,1,2.65A104.46,104.46,0,0,1,482,181.69c-.73,2.64-1.22,3.2-6.79,3.2-7.63,0-13.81-.14-19.13-.42s-9.82-.28-14.18-.28c-1.21,0-3.51.14-6.05.14s-5.21.28-7.39.28c-1.33,0-2.06-.42-2.06-1.25,0-.56.36-1.26,1.7-1.26a14.1,14.1,0,0,0,3.75-.41c2.18-.56,2.79-2.79,3.15-6.27.48-5,.48-14.35.48-25.22V129.31c0-18,0-21.31-.12-25.07-.24-4-1.21-5.3-4.6-6.41a12.39,12.39,0,0,0-3.51-.42c-1.21,0-1.82-.42-1.82-1.25s.73-1.12,2.3-1.12c5,0,11.75.28,14.66.28,2.54,0,11.26-.28,15.38-.28,1.58,0,2.3.28,2.3,1.12s-.6,1.25-1.94,1.25a20.48,20.48,0,0,0-4.11.42c-2.91.56-3.76,2.23-4,6.41-.24,3.76-.24,7.1-.24,25.07Z"/><path class="cls-1" d="M515,102.29l-15.87.41c-6.17.14-8.72,1-10.29,3.63a14.64,14.64,0,0,0-1.82,4c-.24,1-.48,1.53-1.21,1.53s-1-.7-1-2c0-2,2.06-13.37,2.3-14.35.24-1.53.61-2.23,1.21-2.23.85,0,1.94,1,4.61,1.39a86.42,86.42,0,0,0,10.65.56H546.9a40.81,40.81,0,0,0,7.26-.56c1.7-.27,2.55-.55,2.91-.55.73,0,.85.69.85,2.5,0,2.51-.24,11.29-.24,14.35-.13,1.26-.37,2-1,2-.85,0-1.09-.55-1.21-2.37l-.13-1.25c-.24-3.06-3-6.69-12.59-6.83l-13.45-.27V150.2c0,10.87.12,20.2.61,25.36.36,3.34,1,5.57,4.12,6.13a35.73,35.73,0,0,0,5.45.41c1.21,0,1.69.7,1.69,1.26,0,.83-.85,1.25-2.06,1.25-7,0-14.17-.42-17.2-.42-2.42,0-9.69.42-13.93.42-1.33,0-2.05-.42-2.05-1.25,0-.56.36-1.26,1.69-1.26a13.53,13.53,0,0,0,3.76-.41c2.18-.56,2.78-2.79,3.15-6.27.48-5,.48-14.35.48-25.22Z"/><path class="cls-1" d="M593.77,153.83c0-6.41-1-8.92-2.43-12.4-.72-1.81-15.26-27.86-19-34.13-2.67-4.32-4.85-7.1-6.91-8.36a9.6,9.6,0,0,0-4.48-1.53c-.84,0-1.57-.42-1.57-1.25S560.1,95,561.43,95c1.81,0,9.81.28,13.32.28,2.3,0,7.27-.28,12.11-.28,1,0,1.58.28,1.58,1.12s-.73,1-2.42,1.53a1.85,1.85,0,0,0-1.46,1.81,10.2,10.2,0,0,0,1.33,4c1.94,3.62,15.87,31.34,17.69,34.69,1.33-2.79,14.29-28.14,15.87-31.76A17.45,17.45,0,0,0,621,100.2a2.55,2.55,0,0,0-2.3-2.65c-1-.28-1.94-.42-1.94-1.39S617.39,95,618.6,95c3.51,0,7.27.28,10.41.28,2.31,0,9.33-.28,11.39-.28,1.21,0,1.94.28,1.94,1s-.85,1.39-2.06,1.39a11.73,11.73,0,0,0-4.6,1.39c-2.3,1.26-3.27,2.37-5.58,5.58-3.51,4.73-18.77,32.87-20.71,37.88-1.57,4.32-1.33,7.94-1.33,11.84v9.48c0,1.95,0,6.82.24,11.84.24,3.48,1.21,5.71,4.36,6.27a36.78,36.78,0,0,0,5.33.41c1.21,0,1.82.7,1.82,1.26,0,.83-.85,1.25-2.3,1.25-6.66,0-13.81-.42-16.72-.42-2.66,0-9.81.42-13.81.42-1.45,0-2.3-.28-2.3-1.25,0-.56.49-1.26,1.7-1.26a14.69,14.69,0,0,0,3.75-.41c2.18-.56,3-2.79,3.27-6.27.37-5,.37-9.89.37-11.84Z"/><path class="cls-1" d="M794,150.2c0,15.19,0,22.71,2.3,24.94,1.81,1.81,5.93,2.51,14.17,2.51,5.69,0,9.81-.14,12.48-3.35,1.33-1.53,2.42-4.87,2.66-7.1.12-1.12.36-1.81,1.21-1.81s1,1.25,1,2.65a104.46,104.46,0,0,1-1.57,13.65c-.73,2.64-1.22,3.2-6.79,3.2-7.63,0-13.81-.14-19.13-.42s-9.82-.28-14.18-.28c-1.21,0-3.51.14-6.05.14s-5.21.28-7.39.28c-1.33,0-2.06-.42-2.06-1.25,0-.56.36-1.26,1.7-1.26a14.1,14.1,0,0,0,3.75-.41c2.18-.56,2.79-2.79,3.15-6.27.48-5,.48-14.35.48-25.22V129.31c0-18,0-21.31-.12-25.07-.24-4-1.21-5.3-4.6-6.41a12.39,12.39,0,0,0-3.51-.42c-1.21,0-1.82-.42-1.82-1.25s.73-1.12,2.3-1.12c5,0,11.75.28,14.66.28,2.54,0,11.26-.28,15.38-.28,1.58,0,2.3.28,2.3,1.12s-.6,1.25-1.94,1.25a20.48,20.48,0,0,0-4.11.42c-2.91.56-3.76,2.23-4,6.41-.24,3.76-.24,7.1-.24,25.07Z"/><path class="cls-1" d="M850.78,129.31c0-18,0-21.31-.12-25.07-.24-4-1.33-5.44-3.63-6.27a12,12,0,0,0-3.88-.56c-1.09,0-1.7-.28-1.7-1.39,0-.7.85-1,2.55-1,4,0,11.26.28,14.29.28,2.67,0,9.57-.28,13.69-.28,1.33,0,2.18.28,2.18,1,0,1.11-.61,1.39-1.7,1.39a12.9,12.9,0,0,0-3.15.42c-2.9.56-3.75,2.23-4,6.41-.25,3.76-.25,7.1-.25,25.07V150.2c0,11.43,0,20.9.49,25.91.36,3.21,1.09,5,4.24,5.58a35.73,35.73,0,0,0,5.45.41c1.21,0,1.69.7,1.69,1.26,0,.83-.84,1.25-2.06,1.25-7,0-14.29-.42-17.2-.42-2.42,0-9.68.42-13.92.42-1.34,0-2.06-.42-2.06-1.25,0-.56.36-1.26,1.69-1.26a14.13,14.13,0,0,0,3.76-.41c2.18-.56,2.78-2.23,3.15-5.72.48-4.87.48-14.34.48-25.77Z"/><path class="cls-1" d="M911,168.45c.24,9.2,1.57,12,3.63,12.82a16,16,0,0,0,5.57.83c1.21,0,1.82.56,1.82,1.26,0,1-1,1.25-2.42,1.25-6.91,0-11.87-.42-13.81-.42-1,0-6.06.42-11.51.42-1.45,0-2.42-.14-2.42-1.25,0-.7.73-1.26,1.7-1.26a19.49,19.49,0,0,0,4.84-.55c2.79-.84,3.15-4,3.27-14.35l1-70.21c0-2.36.73-4,1.82-4,1.33,0,2.78,1.81,4.6,3.9,1.33,1.54,17.32,20.34,32.82,37.75,7.27,8.22,21.44,24.94,23,26.61h.48l-1.09-52.66c-.12-7.24-1.09-9.33-3.63-10.44a15.6,15.6,0,0,0-5.57-.7c-1.34,0-1.7-.56-1.7-1.25,0-1,1.09-1.12,2.67-1.12,5.57,0,11.26.28,13.56.28,1.21,0,5.21-.28,10.42-.28,1.45,0,2.42.14,2.42,1.12,0,.69-.6,1.25-1.82,1.25a9.45,9.45,0,0,0-3.27.42c-2.9,1-3.75,3.06-3.87,9.75l-1.21,74.66c0,2.65-.85,3.76-1.7,3.76-1.82,0-3.27-1.25-4.36-2.5-6.66-7.11-20-21.73-31.13-34.13-11.63-12.82-22.89-27.16-25-29.25h-.36Z"/><path class="cls-1" d="M1010.42,129.31c0-18,0-21.31-.13-25.07-.24-4-1.21-5.3-4.6-6.41a17.07,17.07,0,0,0-4.24-.42c-1.09,0-1.81-.42-1.81-1.25s.84-1.12,2.42-1.12c5.57,0,12.35.28,15.38.28,3.39,0,27,.14,29.07,0a42.09,42.09,0,0,0,4.48-.69,11.16,11.16,0,0,1,1.7-.56c.6,0,.73.56.73,1.11a59.29,59.29,0,0,0-.85,7.66c-.12,1.26-.37,6.41-.61,7.8-.12.56-.36,2-1.21,2s-.85-.55-.85-1.53a12.77,12.77,0,0,0-.72-4.32c-.85-2.09-1.7-3.76-7-4.31-1.82-.28-14.53-.56-16.71-.56-.49,0-.73.42-.73,1.11v29.26c0,.69.12,1.25.73,1.25,2.42,0,16.23,0,18.65-.28s4.12-.56,5.09-1.81c.84-.84,1.21-1.53,1.69-1.53s.85.55.85,1.25-.24,2.65-.85,8.64c-.24,2.37-.48,7.1-.48,7.94s-.12,2.64-1.09,2.64a.86.86,0,0,1-1-1c-.12-1.25-.12-2.79-.37-4.32-.6-2.37-1.93-4.18-5.93-4.6-1.94-.27-14-.55-16.72-.55-.48,0-.6.55-.6,1.25v9.47c0,4-.12,14.07,0,17.55.24,8.08,3.51,9.89,14.41,9.89,2.79,0,7.27-.14,10.06-1.53s3.87-3.9,4.6-8.77c.24-1.26.48-1.81,1.21-1.81s1,1.53,1,2.78a92.43,92.43,0,0,1-1.45,13.1c-.73,3.06-1.7,3.06-5.7,3.06-8,0-14.41-.14-19.62-.42s-9.2-.28-12.35-.28c-1.21,0-3.52.14-6.06.14s-5.21.28-7.39.28c-1.33,0-2.06-.42-2.06-1.25,0-.56.37-1.26,1.7-1.26a14.1,14.1,0,0,0,3.75-.41c2.18-.56,2.79-2.79,3.15-6.27.49-5,.49-14.35.49-25.22Z"/><path class="cls-2" d="M668.45,95.22l-25.22,84.9h89.52l24.13-84.9Zm57.11,51.4H707l-5.57,18.44H683.2l5.67-18.44h-19.6L675,129H694.3l5.76-18.71h17.85L712.26,129h18.58Z"/><rect class="cls-1" x="26.47" y="26.46" width="1099.51" height="7.87"/><rect class="cls-1" x="26.47" y="26.46" width="7.87" height="228.94"/><rect class="cls-1" x="1118.11" y="26.46" width="7.87" height="228.94"/><rect class="cls-1" x="922.94" y="247.53" width="202.37" height="7.87"/><rect class="cls-1" x="26.47" y="247.53" width="202.37" height="7.87"/><rect class="cls-1" x="5.63" y="6.66" width="5.65" height="58.14"/><rect class="cls-1" x="5.63" y="6.66" width="58.14" height="5.65"/><rect class="cls-1" x="1141.53" y="6.63" width="5.65" height="58.14"/><rect class="cls-1" x="1089.04" y="6.63" width="58.14" height="5.65"/><rect class="cls-1" x="1141.53" y="218.46" width="5.65" height="58.14"/><rect class="cls-1" x="1089.04" y="270.95" width="58.14" height="5.65"/><rect class="cls-1" x="5.27" y="218.46" width="5.65" height="58.14"/><rect class="cls-1" x="5.27" y="270.95" width="58.14" height="5.65"/><rect class="cls-1" x="396.17" y="243.85" width="12.89" height="12.89" transform="translate(-59.06 358.01) rotate(-45)"/><rect class="cls-1" x="395.91" y="244.7" width="14.18" height="14.18" transform="translate(-60.01 358.71) rotate(-45)"/><rect class="cls-1" x="765.35" y="244.8" width="14.18" height="14.18" transform="translate(48.15 620.01) rotate(-45)"/><path class="cls-1" d="M268.19,260.3l.39.22-.94,1.78a12.44,12.44,0,0,1-3.45,1.33,19,19,0,0,1-4.22.44,15.07,15.07,0,0,1-5.07-.84,11.89,11.89,0,0,1-4.1-2.41,11,11,0,0,1-2.89-4.07,13.92,13.92,0,0,1-1-5.33,11.72,11.72,0,0,1,3.63-9.07q3.64-3.34,9.91-3.35a24.14,24.14,0,0,1,4.13.35,20.49,20.49,0,0,1,3.89,1.1,19.73,19.73,0,0,0-.58,2.53c-.13.85-.22,1.74-.27,2.66h-.88c-.06-.51-.1-1-.14-1.47s-.06-.91-.08-1.32a11.24,11.24,0,0,0-3.25-1.79,10.92,10.92,0,0,0-3.62-.61,8.78,8.78,0,0,0-6.76,2.67,10.34,10.34,0,0,0-2.47,7.31,12,12,0,0,0,3,8.54,10.28,10.28,0,0,0,7.92,3.23,13.69,13.69,0,0,0,3.68-.48A10.56,10.56,0,0,0,268.19,260.3Z"/><path class="cls-1" d="M272.27,255.66a8.32,8.32,0,0,1,2.32-6.2,8.52,8.52,0,0,1,6.29-2.31,7.72,7.72,0,0,1,5.75,2.17,8,8,0,0,1,2.13,5.85,8.73,8.73,0,0,1-2.46,6.44,8.61,8.61,0,0,1-6.37,2.46,7.22,7.22,0,0,1-5.6-2.27A8.8,8.8,0,0,1,272.27,255.66Zm3.11-1.24a11.15,11.15,0,0,0,1.49,6.15,4.53,4.53,0,0,0,4,2.29,4.12,4.12,0,0,0,3.52-1.61,7.9,7.9,0,0,0,1.2-4.76,11.22,11.22,0,0,0-1.39-6,4.24,4.24,0,0,0-3.75-2.19,4.57,4.57,0,0,0-3.73,1.58A7,7,0,0,0,275.38,254.42Z"/><path class="cls-1" d="M294.75,260.13v-8.64a2.94,2.94,0,0,0-.28-1.63,1.64,1.64,0,0,0-1.24-.33c-.21,0-.58,0-1.12.06a.22.22,0,0,0-.1,0v-1a20.77,20.77,0,0,0,2.56-.52c.89-.23,1.81-.52,2.74-.86l.43.11,0,3,2.12-1.84a4.73,4.73,0,0,1,1.59-.95,6.15,6.15,0,0,1,2.09-.29,5.11,5.11,0,0,1,4.14,1.57A7.6,7.6,0,0,1,309,253.8V260c0,1.18.16,1.89.47,2.14a4,4,0,0,0,2.09.42v1l-2-.07-1,0-1.38,0c-.47,0-.94,0-1.41.07,0-.58.08-1.16.11-1.72s0-1.13,0-1.69v-6.41a4.87,4.87,0,0,0-1-3.28,3.74,3.74,0,0,0-2.95-1.09,4.34,4.34,0,0,0-3,1,3.65,3.65,0,0,0-1.14,2.83v7.26c0,1,.14,1.59.41,1.78a4.89,4.89,0,0,0,2.24.29v1l-3-.13c-.56,0-1,0-1.31,0-.63,0-1.28,0-1.93,0s-1.35.07-2.09.12v-1a4.4,4.4,0,0,0,2.24-.34C294.61,262,294.75,261.32,294.75,260.13Z"/><path class="cls-1" d="M327.84,261.45l-.77,1.38a9.45,9.45,0,0,1-2.29.88,11.53,11.53,0,0,1-2.61.29,7.44,7.44,0,0,1-5.64-2.07,8.17,8.17,0,0,1-2-5.9,10.62,10.62,0,0,1,.64-3.9,5.3,5.3,0,0,1,1.88-2.49,16.82,16.82,0,0,1,3.44-1.91,8.42,8.42,0,0,1,3.05-.58,10.06,10.06,0,0,1,2.24.24,9,9,0,0,1,2,.69c-.14.88-.25,1.68-.32,2.4s-.14,1.38-.17,2l-.9,0-.1-1a5.16,5.16,0,0,0-.18-1.05,1.2,1.2,0,0,0-.32-.5,4.26,4.26,0,0,0-1.58-.8,7.18,7.18,0,0,0-2.09-.29,4.22,4.22,0,0,0-3.45,1.39,6.24,6.24,0,0,0-1.16,4.1,9,9,0,0,0,1.65,5.71,5.34,5.34,0,0,0,4.45,2.11,6.64,6.64,0,0,0,1.24-.11,7.13,7.13,0,0,0,1.3-.34l.7-.25.69-.29Z"/><path class="cls-1" d="M344.59,262.24a9,9,0,0,1-2.61,1.35,9.63,9.63,0,0,1-3,.45,7.58,7.58,0,0,1-5.83-2.13q-2-2.13-2-6.21a10.54,10.54,0,0,1,.59-3.67,6.05,6.05,0,0,1,1.73-2.54,11.57,11.57,0,0,1,2.83-1.75,7.4,7.4,0,0,1,2.83-.59,6.55,6.55,0,0,1,4.69,1.72,5.84,5.84,0,0,1,1.81,4.42c0,.52-.46,1-1.38,1.4a8.47,8.47,0,0,1-3.46.62h-6.45v.12a7.19,7.19,0,0,0,1.6,5,5.78,5.78,0,0,0,4.52,1.77,7.73,7.73,0,0,0,2.37-.36,6.87,6.87,0,0,0,2-1l.31.2a2.22,2.22,0,0,0-.27.45C344.83,261.62,344.72,261.89,344.59,262.24Zm-10.27-8.31q1.32.07,2.61.09c.86,0,1.73,0,2.6,0h1.81c.41,0,.79,0,1.14,0,0-.12,0-.24,0-.37s0-.31,0-.57a5.45,5.45,0,0,0-1-3.54,3.62,3.62,0,0,0-2.94-1.2,3.71,3.71,0,0,0-3.15,1.42A7,7,0,0,0,334.32,253.93Z"/><path class="cls-1" d="M351.62,270V251.85a3,3,0,0,0-.39-1.9,2.59,2.59,0,0,0-1.73-.39h-.62l0-1a24.83,24.83,0,0,0,2.94-.5,12.37,12.37,0,0,0,2.3-.78l.52,0-.06,3.28,2.61-2.23a4.55,4.55,0,0,1,1.51-.89,7,7,0,0,1,2.1-.26,6.81,6.81,0,0,1,5,1.83,6.55,6.55,0,0,1,1.87,4.86,9.08,9.08,0,0,1-.82,3.88,8.5,8.5,0,0,1-2.44,3,17,17,0,0,1-3.45,2.23,6.82,6.82,0,0,1-2.87.7,7.27,7.27,0,0,1-1.74-.21,7.9,7.9,0,0,1-1.7-.65V270a2.16,2.16,0,0,0,.41,1.6,5.13,5.13,0,0,0,2.44.37v1c-.7,0-1.42-.06-2.16-.07s-1.49,0-2.28,0c-1.29,0-2.21,0-2.75,0s-1,0-1.41.07v-1h.52a2.75,2.75,0,0,0,1.79-.4A2.17,2.17,0,0,0,351.62,270Zm3-11.64a6.72,6.72,0,0,0,.07,1.23,1.16,1.16,0,0,0,.24.55,4.53,4.53,0,0,0,1.81,1.29,6.08,6.08,0,0,0,2.42.51,4.87,4.87,0,0,0,4-1.77,7.53,7.53,0,0,0,1.45-4.88,6.16,6.16,0,0,0-1.43-4.26,4.84,4.84,0,0,0-3.78-1.6,5.05,5.05,0,0,0-3.41,1.16,3.73,3.73,0,0,0-1.35,2.95Z"/><path class="cls-1" d="M373.64,259.45v-9.34H371.2v-.58a10.72,10.72,0,0,0,1.3-.48,14.18,14.18,0,0,0,1.27-.68c0-1.37,0-2.41,0-3.12s0-1.36-.05-2l1.33-.61,1.45-.74.48.31c-.1.83-.18,1.75-.23,2.76s-.08,2.21-.08,3.58q1.13,0,2.25-.06c.75,0,1.54-.1,2.36-.18l-.17,1.78h-4.47v7.79a7,7,0,0,0,.51,3.24A2,2,0,0,0,379,262a6.39,6.39,0,0,0,.89-.07c.35,0,.76-.12,1.22-.22l.21.49c-.26.22-.57.46-.92.71s-.77.53-1.27.84q-.56.13-1,.21a4.34,4.34,0,0,1-.74.07,3.7,3.7,0,0,1-2.94-.95C373.9,262.42,373.64,261.22,373.64,259.45Z"/><path class="cls-1" d="M418.15,263c.13-1.15.23-2.3.31-3.43s.1-2.24.1-3.35l1.42.05v.52c0,1.95.54,3.35,1.62,4.18s2.89,1.26,5.4,1.26a7.51,7.51,0,0,0,5.26-1.72,6.1,6.1,0,0,0,1.88-4.75,4.75,4.75,0,0,0-1.23-3.58q-1.25-1.17-4.93-1.86c-.33-.07-.8-.15-1.41-.25q-4.62-.84-6.05-1.86a6.16,6.16,0,0,1-2-2.35,6.89,6.89,0,0,1-.68-3.13,8.54,8.54,0,0,1,3-6.76,11.39,11.39,0,0,1,7.78-2.62,17.41,17.41,0,0,1,7.48,1.72c-.18,1.22-.33,2.32-.42,3.29s-.15,1.88-.16,2.73l-1.43.07v-.44a5.54,5.54,0,0,0-1.45-4.27c-1-.9-2.5-1.34-4.63-1.34a6.48,6.48,0,0,0-4.63,1.67,5.76,5.76,0,0,0-1.77,4.38,4.49,4.49,0,0,0,1.31,3.48,9.88,9.88,0,0,0,4.64,1.87l1.82.32q4.42.75,6,1.82a5.68,5.68,0,0,1,1.91,2.17,6.72,6.72,0,0,1,.61,3,9.56,9.56,0,0,1-3.68,7.65,14,14,0,0,1-9.25,3.06,14.93,14.93,0,0,1-3.36-.38A17.3,17.3,0,0,1,418.15,263Z"/><path class="cls-1" d="M451.26,264.12c-.08-.55-.25-1.49-.53-2.83s-.66-3-1.12-4.88l-4.23-18a5.07,5.07,0,0,0-1.12-2.67,4.14,4.14,0,0,0-2.29-.45h-.28v-1.36c.53,0,1.15.07,1.85.09s1.87,0,3.49,0,2.85,0,3.61,0,1.45,0,2.07-.09v1.32a9.59,9.59,0,0,0-2.79.24.92.92,0,0,0-.57,1,9.85,9.85,0,0,0,.16,1.6c.11.65.27,1.45.49,2.39l3.88,16.66q3.39-8.16,6.13-15.06t3.29-8.5h1.41q.78,2.44,1.65,4.93c.58,1.65,1.18,3.32,1.82,5l5.16,13.85,4.08-14.18c.52-1.85.9-3.26,1.13-4.25a11,11,0,0,0,.35-2.14,1.15,1.15,0,0,0-.59-1.13,9.22,9.22,0,0,0-2.84-.4v-1.29q.91.06,2,.09c.73,0,1.51,0,2.35,0s1.85,0,2.65,0,1.51,0,2.15-.09v1.36h-.42a2.46,2.46,0,0,0-1.94.78,14.6,14.6,0,0,0-1.74,4.28L475.9,255.6q-.86,2.86-1.44,5.08c-.38,1.48-.64,2.63-.77,3.44h-2.21c-.29-.93-.67-2-1.14-3.35s-1-2.74-1.57-4.27l-6-15.78-6,14.56c-.57,1.39-1.12,2.8-1.64,4.24s-1.05,3-1.57,4.6Z"/><path class="cls-1" d="M496.29,258.26v.2c0,1.93.25,3.07.73,3.44a7.47,7.47,0,0,0,3.51.65l0,1.31c-1.28-.07-2.44-.12-3.46-.15s-2,0-2.83,0-1.74,0-2.76,0-2.2.08-3.53.15l0-1.31c1.83,0,3-.23,3.47-.61s.72-1.58.72-3.6V239.25c0-1.88-.25-3-.73-3.38s-1.65-.58-3.51-.63v-1.32q1.84.11,3.39.15c1,0,2,.06,2.93.06l1.94,0,4.37-.17,0,1.32c-1.81,0-2.95.21-3.44.59s-.73,1.59-.73,3.61Z"/><path class="cls-1" d="M510.13,263.86V262.4c1.39,0,2.36-.1,2.9-.17a2.14,2.14,0,0,0,1-.25,1.7,1.7,0,0,0,.34-1,22.74,22.74,0,0,0,.1-2.68V236c-.34,0-.79,0-1.37,0l-1.26,0h-1a11.26,11.26,0,0,0-4.12.43,2,2,0,0,0-.9,1.7l-.3,2.79h-1.26c0-.38,0-1,0-1.75s0-1.38,0-1.77,0-.95,0-1.55-.07-1.25-.13-2a14.25,14.25,0,0,0,2.19.2c1.06.05,2.43.07,4.13.07h12.17c1.69,0,3.06,0,4.12-.07a14,14,0,0,0,2.19-.2c-.06.61-.1,1.26-.13,1.93s0,1.39,0,2.15c0,.46,0,.93,0,1.42s0,1,0,1.53h-1.26l-.3-2.79a3,3,0,0,0-.45-1.4,1.91,1.91,0,0,0-1.16-.56,17.37,17.37,0,0,0-2.19-.16c-1,0-2.66-.05-4.82-.05v23.19c0,1.52.17,2.44.52,2.76a3.48,3.48,0,0,0,2.24.48h.9l.64,0v1.5c-.87,0-1.87-.07-3-.09s-2.37,0-3.71,0q-3.11,0-4.26,0C511.19,263.79,510.58,263.82,510.13,263.86Z"/><path class="cls-1" d="M532.34,263.82v-1.27l21.25-26.46h-8.1q-4.47,0-6,.11a4.94,4.94,0,0,0-1.89.35,1.83,1.83,0,0,0-.51.84,7.63,7.63,0,0,0-.29,1.57l-.24,2.09h-1.32c0-.55,0-1.13.06-1.73s0-1.21,0-1.82,0-1.26,0-1.86,0-1.17-.09-1.72c1.46.05,3.5.1,6.14.14s5.71.07,9.24.07c2,0,3.66,0,5.09-.06s2.71-.08,3.87-.15v1.48l-21.28,26.37h10.8a56.39,56.39,0,0,0,6.13-.21,2.9,2.9,0,0,0,1.92-.73,4.91,4.91,0,0,0,.62-1.61,26.44,26.44,0,0,0,.44-3.06h1.33c-.13,2-.22,3.46-.25,4.3s-.06,1.56-.06,2.13c0,.18,0,.41,0,.7a5,5,0,0,1,0,.57q-2.55-.08-8.11-.12t-12.81,0c-1.06,0-2.08,0-3.07,0S533.27,263.78,532.34,263.82Z"/><path class="cls-1" d="M565.15,263.86v-1.19a3.08,3.08,0,0,0,1.87-1.13,7.86,7.86,0,0,0,.49-3.56V238.27c0-1.37-.21-2.2-.62-2.5a7.59,7.59,0,0,0-3.22-.62v-1.34c1.2.06,2.39.1,3.58.14s2.39.05,3.62.05c4.26,0,8.44-.05,12.57-.15l1.21,0a2.18,2.18,0,0,1,1.22.27,1,1,0,0,1,.39.86s0,.21,0,.5Q586,238,586,240.63h-1.21a18.34,18.34,0,0,0-.25-2.66,3.59,3.59,0,0,0-.58-1.5,11.67,11.67,0,0,0-2.84-.59q-1.82-.18-5.34-.18c-1.15,0-2,0-2.48,0s-.94.06-1.33.11c-.09,1.23-.15,2.08-.18,2.54s0,.84,0,1.1v7.2a1.15,1.15,0,0,0,.18.77,1.34,1.34,0,0,0,.84.17l4.17-.08c2.48,0,4-.27,4.46-.64a2.81,2.81,0,0,0,.74-2.33v-.82l1.39,0c0,1.27-.07,2.25-.08,2.92s0,1.32,0,1.92,0,1.17,0,1.83,0,1.66.08,3h-1.39c0-.11,0-.27,0-.47s0-.34,0-.43a3.1,3.1,0,0,0-.75-2.49c-.5-.39-2-.61-4.48-.67l-4.19,0a1.33,1.33,0,0,0-.84.18,1.12,1.12,0,0,0-.18.76V261.9h8.4a18.36,18.36,0,0,0,3.55-.23,1.82,1.82,0,0,0,1.28-.8,5.85,5.85,0,0,0,.51-1.6c.17-.76.33-1.7.47-2.81h1.39c-.12,1.15-.2,2.26-.26,3.32s-.09,2.07-.09,3v.86c-.81.08-1.63.14-2.47.18s-1.71.07-2.6.07c-.69,0-2.14,0-4.38-.11s-4.14-.1-5.71-.1q-1.92,0-6.12.14C565.44,263.86,565.26,263.86,565.15,263.86Z"/><path class="cls-1" d="M592,263.86l0-1.4c1.81,0,2.92-.23,3.32-.6s.61-1.57.61-3.56v-20c0-1.42-.19-2.28-.57-2.56s-1.43-.43-3.16-.43v-1.4l3,.09,2.84,0c.44,0,1.42,0,2.92-.09s2.8-.1,3.87-.1q5.45,0,7.74,1.46a5.19,5.19,0,0,1,2.3,4.76,7.49,7.49,0,0,1-1.87,5.15,12.35,12.35,0,0,1-5.63,3.3l7.72,9.9.8,1c1.58,2.06,2.82,3.1,3.73,3.1h.26v1.31c-.43,0-.89-.07-1.36-.09s-1,0-1.52,0-1.19,0-1.66,0-.86.05-1.16.09c-.15-.18-.36-.46-.65-.85q-2-2.79-3.15-4.21l-4.92-6.34a.39.39,0,0,1-.09-.11q-2.77-3.53-3.43-3.83v-.77h.3a10,10,0,0,0,6.21-1.67,5.74,5.74,0,0,0,2.15-4.8A5.31,5.31,0,0,0,609,237a7.79,7.79,0,0,0-5.11-1.42,12.82,12.82,0,0,0-1.86.13,16.84,16.84,0,0,0-1.83.35c0,1.17-.08,2.11-.1,2.82s0,1.22,0,1.55v17.79c0,2.08.19,3.31.58,3.68s1.33.55,2.8.55h.78v1.42l-3.31-.09-2.76,0-2.94,0Z"/><path class="cls-1" d="M631.05,261.9h8.35a20.4,20.4,0,0,0,3.54-.22,2,2,0,0,0,1.35-.72,7.45,7.45,0,0,0,.67-1.79q.31-1.23.63-3l1.36.09c-.18,1.39-.34,2.71-.45,4s-.21,2.42-.26,3.51c-.48.08-1,.14-1.6.18s-1.31.07-2.18.07c-.62,0-2.3,0-5-.11s-5.16-.1-7.27-.1c-1.06,0-2.07,0-3,0s-1.86.05-2.69.09v-1.19a2.89,2.89,0,0,0,1.91-1.15,9.13,9.13,0,0,0,.5-3.87V239c0-1.77-.24-2.83-.71-3.19a7.49,7.49,0,0,0-3.52-.61v-1.32c1.23.07,2.36.12,3.38.15s2,.06,2.93.06l1.85,0,4.42-.17,0,1.32c-1.79,0-2.93.2-3.4.57s-.72,1.58-.72,3.63Z"/><path class="cls-1" d="M650.25,263.86v-1.31h.08q2.08,0,4.15-4.76l.3-.71,10.13-23.52a.46.46,0,0,1,.22-.19,1.15,1.15,0,0,1,.41-.06,1.05,1.05,0,0,1,.4.06.47.47,0,0,1,.23.21L676.82,259s0,.13.11.25q1.35,3.27,3.58,3.27h.18v1.31l-1.13,0q-3-.12-4.17-.12c-1.13,0-2.16,0-3.09,0s-1.81.07-2.64.12v-1.31a11.9,11.9,0,0,0,2.87-.33.84.84,0,0,0,.65-.8,4.12,4.12,0,0,0-.13-.84,9.24,9.24,0,0,0-.37-1.13l-2.89-7.54H659.27l-2.89,7.29a12.78,12.78,0,0,0-.46,1.33,3.27,3.27,0,0,0-.12.84.86.86,0,0,0,.65.85,10.83,10.83,0,0,0,2.69.33v1.31l-2.32-.12c-.75,0-1.49,0-2.21,0s-1.6,0-2.3,0S650.91,263.81,650.25,263.86ZM660,250H669l-4.43-10.8Z"/><path class="cls-1" d="M689.47,255.72c0,1.51,0,2.78.11,3.82a9.36,9.36,0,0,0,.3,2.11c.09.23.35.4.79.51a10,10,0,0,0,2.05.16h.72l0,1.54c-.77,0-1.57-.07-2.41-.09s-1.72,0-2.65,0-2,0-2.78,0-1.54.05-2.14.09v-1.59a12.56,12.56,0,0,0,2.51-.16,1.31,1.31,0,0,0,.91-.61,7.37,7.37,0,0,0,.44-2.29c.1-1.15.16-2.94.17-5.37l.09-17a3,3,0,0,0-1.31-1.13,8.05,8.05,0,0,0-2.51-.44v-1.34l2.06.08c.61,0,1.11,0,1.5,0,.62,0,1.27,0,1.94,0l2-.08q1.71,2.39,3.83,5.05t4.59,5.6l12.41,14.59v-17.1c0-1.51,0-2.78-.11-3.82a9.7,9.7,0,0,0-.3-2.13c-.08-.22-.34-.39-.79-.5a9.24,9.24,0,0,0-2.06-.17h-.69v-1.52c.78,0,1.59.07,2.44.09s1.72,0,2.61,0,1.92,0,2.77,0l2.2-.08v1.57a12.58,12.58,0,0,0-2.5.16,1.28,1.28,0,0,0-.9.61,7.47,7.47,0,0,0-.48,2.48c-.1,1.24-.15,3-.15,5.2l-.09,16.2c0,1.06,0,1.89,0,2.49s0,1.18,0,1.74l-.3.14-3.3-.69q-2.24-2.81-7.27-8.79l-.91-1.06-12.84-15.22Z"/><path class="cls-1" d="M723.12,263.86V262.8a3.32,3.32,0,0,0,1.82-1.42,10.33,10.33,0,0,0,.48-4V238.83c0-1.74-.21-2.76-.61-3.07a6.85,6.85,0,0,0-3.17-.55v-1.29c.75,0,1.55.07,2.39.09s2,0,3.6,0,3.42,0,5.66-.13,3.73-.14,4.47-.14q7.4,0,11.75,3.67a12.22,12.22,0,0,1,4.35,9.83,16.76,16.76,0,0,1-1.32,6.51,16,16,0,0,1-9.46,9,23.37,23.37,0,0,1-7.75,1.16c-1,0-2.3,0-3.86-.11s-2.62-.1-3.17-.1l-2.44,0Zm6.61-2.28a19.91,19.91,0,0,0,2.41.37c.84.08,1.74.11,2.69.11q7,0,10.65-3.55t3.67-10.34q0-6.19-3.42-9.36c-2.27-2.1-5.66-3.16-10.14-3.16-1,0-2.05,0-3,.11s-1.91.17-2.77.29c0,.46-.08,1-.1,1.49s0,1.3,0,2.32v18.6c0,.86,0,1.49,0,1.92S729.7,261.21,729.73,261.58Z"/><path class="cls-1" d="M791.18,263.86V263a2.69,2.69,0,0,0,1.5-1.14,8,8,0,0,0,.4-3.24V243.75c0-1.4-.17-2.22-.5-2.47a5.89,5.89,0,0,0-2.62-.43v-1c.62,0,1.28.06,2,.08s1.69,0,3,0,2.83,0,4.69-.11,3.08-.1,3.69-.1q6.13,0,9.73,2.95a9.66,9.66,0,0,1,3.6,7.89,13.09,13.09,0,0,1-1.1,5.23,12.79,12.79,0,0,1-3,4.32,13.33,13.33,0,0,1-4.83,2.92,19.75,19.75,0,0,1-6.41.93c-.83,0-1.9,0-3.19-.08s-2.17-.09-2.62-.09l-2,0Zm5.47-1.83a17.62,17.62,0,0,0,2,.3c.7.06,1.44.09,2.23.09q5.77,0,8.82-2.86c2-1.91,3-4.67,3-8.31,0-3.31-.94-5.82-2.83-7.51s-4.68-2.54-8.39-2.54c-.86,0-1.7,0-2.51.08s-1.58.14-2.3.24c0,.37-.06.77-.08,1.19s0,1,0,1.87v14.95c0,.68,0,1.19,0,1.53S796.63,261.73,796.65,262Z"/><path class="cls-1" d="M834.55,262.52a9.74,9.74,0,0,1-2.77,1.35,10.81,10.81,0,0,1-3.18.45q-4.07,0-6.17-2.13t-2.1-6.21a9.9,9.9,0,0,1,.63-3.67,5.89,5.89,0,0,1,1.83-2.54,11.88,11.88,0,0,1,3-1.74,8,8,0,0,1,3-.59,7.18,7.18,0,0,1,5,1.71,5.68,5.68,0,0,1,1.91,4.42c0,.52-.49,1-1.45,1.4a9.49,9.49,0,0,1-3.67.62H823.7v.12a7,7,0,0,0,1.7,5,6.32,6.32,0,0,0,4.78,1.78,8.3,8.3,0,0,0,2.52-.37,7.29,7.29,0,0,0,2.15-1.05l.32.2a2.94,2.94,0,0,0-.28.45A7.07,7.07,0,0,0,834.55,262.52Zm-10.88-8.31c.93,0,1.85.08,2.76.1l2.75,0h1.92l1.2,0a2.52,2.52,0,0,0,.05-.37c0-.13,0-.32,0-.57a5.23,5.23,0,0,0-1.06-3.54,3.9,3.9,0,0,0-3.11-1.21,4.07,4.07,0,0,0-3.34,1.42A6.65,6.65,0,0,0,823.67,254.21Z"/><path class="cls-1" d="M839.71,263.63a10,10,0,0,0,.31-1.81,23.94,23.94,0,0,0,.12-2.5v-.52h1a2.62,2.62,0,0,1,0,.27c0,.1,0,.25,0,.46a3.3,3.3,0,0,0,1.1,2.72,5.39,5.39,0,0,0,3.39.89,4.12,4.12,0,0,0,2.72-.89,2.8,2.8,0,0,0,1.07-2.24,2.19,2.19,0,0,0-.83-1.8A8.85,8.85,0,0,0,845.4,257a10.9,10.9,0,0,1-4.43-1.75,3.43,3.43,0,0,1-1.08-2.72,4.47,4.47,0,0,1,1.71-3.66,7.09,7.09,0,0,1,4.57-1.37,14.56,14.56,0,0,1,2.36.19,10.52,10.52,0,0,1,2.13.59c-.06.36-.1.76-.13,1.2s0,.92,0,1.44c0,.34,0,.61,0,.8s0,.37,0,.54h-.92s0-.11,0-.21,0-.16,0-.21a2.78,2.78,0,0,0-1.12-2.35,5.17,5.17,0,0,0-3.15-.84,3.48,3.48,0,0,0-2.27.71,2.36,2.36,0,0,0-.86,1.89,2.06,2.06,0,0,0,.81,1.72,9.35,9.35,0,0,0,3.25,1.18,12.23,12.23,0,0,1,4.58,1.67,3.14,3.14,0,0,1,1.11,2.6,5.27,5.27,0,0,1-1.94,4.23,7.54,7.54,0,0,1-5,1.63,21.71,21.71,0,0,1-2.69-.16A25.53,25.53,0,0,1,839.71,263.63Z"/><path class="cls-1" d="M857.87,260.77v-8.34c0-1.21-.13-1.94-.41-2.18a3.54,3.54,0,0,0-2-.36h-.4v-1a27.62,27.62,0,0,0,3.05-.59,16.64,16.64,0,0,0,2.47-.86l.59.2v12.58c0,1.21.14,1.95.43,2.22a3.38,3.38,0,0,0,2.06.4H864v1c-.41,0-.9-.05-1.48-.07s-1.57,0-3,0-2.46,0-3,0-1,0-1.42.07v-1h.32a3.44,3.44,0,0,0,2-.39A2.34,2.34,0,0,0,857.87,260.77ZM857.19,242a1.83,1.83,0,0,1,.6-1.38,2.06,2.06,0,0,1,1.45-.56,2.08,2.08,0,0,1,1.46.56,1.83,1.83,0,0,1,.6,1.38,1.73,1.73,0,0,1-.6,1.33,2.21,2.21,0,0,1-2.92,0A1.75,1.75,0,0,1,857.19,242Z"/><path class="cls-1" d="M871.3,263.44a4.88,4.88,0,0,1-1.82-1,2.35,2.35,0,0,1-.35-1.48,2,2,0,0,1,1.09-1.63l.22-.13,1.66-1.16-.1-.21a5.31,5.31,0,0,1-2.86-1.68,4.5,4.5,0,0,1-1-3,5.13,5.13,0,0,1,2.29-4.29,10.54,10.54,0,0,1,8.47-1.34,5.19,5.19,0,0,1,2,1.12l.71,0h.9l1.39,0,2.35-.09-.69,1.68h-3.71a4.24,4.24,0,0,1,.24.82,5,5,0,0,1,.08.86,5.28,5.28,0,0,1-2.22,4.5,10.19,10.19,0,0,1-6.13,1.64h-.43a6,6,0,0,0-.74,1.09,2.08,2.08,0,0,0-.25.88,1.13,1.13,0,0,0,.84,1.1,12,12,0,0,0,3.46.31h.44c3.43,0,5.61.33,6.54,1a3.83,3.83,0,0,1,1.4,3.37,6.33,6.33,0,0,1-2.87,5.29,12.1,12.1,0,0,1-7.35,2.11,9.55,9.55,0,0,1-5.58-1.48,4.52,4.52,0,0,1-2.1-3.85,3.24,3.24,0,0,1,1.8-3.05Zm1.47.32a6.19,6.19,0,0,0-2.13,1.79,4,4,0,0,0-.67,2.32,3.62,3.62,0,0,0,1.58,3,6.5,6.5,0,0,0,4,1.18,7.38,7.38,0,0,0,4.76-1.48,4.67,4.67,0,0,0,1.85-3.81,2.65,2.65,0,0,0-1.06-2.37,8.14,8.14,0,0,0-4-.69h-1.19l-1.16,0h-1.09ZM871.15,252a5.56,5.56,0,0,0,1.07,3.62,3.62,3.62,0,0,0,3,1.31,3.87,3.87,0,0,0,2.89-1.05,3.92,3.92,0,0,0,1-2.9,4.93,4.93,0,0,0-1.15-3.34,3.65,3.65,0,0,0-2.86-1.32,4.1,4.1,0,0,0-2.9,1A3.5,3.5,0,0,0,871.15,252Z"/><path class="cls-1" d="M891,260.42v-8.65a2.81,2.81,0,0,0-.3-1.63,1.81,1.81,0,0,0-1.32-.33c-.21,0-.61,0-1.18.07h-.11v-1a27.3,27.3,0,0,0,2.71-.52c1-.24,1.92-.53,2.91-.86l.45.1,0,3,2.25-1.83a5.12,5.12,0,0,1,1.68-1,7.22,7.22,0,0,1,2.21-.29,5.6,5.6,0,0,1,4.38,1.57c.94,1.05,1.4,2.7,1.4,4.94v6.24c0,1.17.17,1.89.51,2.13a4.38,4.38,0,0,0,2.21.42v1l-2.08-.07-1.08,0-1.47,0-1.5.07c0-.58.09-1.15.12-1.72s0-1.13,0-1.69V254a4.6,4.6,0,0,0-1-3.27,4.08,4.08,0,0,0-3.11-1.1,4.75,4.75,0,0,0-3.22,1.05,3.53,3.53,0,0,0-1.2,2.82v7.26c0,1,.14,1.6.43,1.79a5.7,5.7,0,0,0,2.37.28v1l-3.2-.13-1.39,0c-.67,0-1.36,0-2,0l-2.21.12,0-1a5.07,5.07,0,0,0,2.38-.33C890.82,262.31,891,261.61,891,260.42Z"/></svg>